<svg xmlns="http://www.w3.org/2000/svg" xmlns:xlink="http://www.w3.org/1999/xlink" version="1.1" x="0px" y="0px" viewBox="0 0 18 22.5" enable-background="new 0 0 18 18" xml:space="preserve"><g><polygon points="14,16 17,12 14,12 4,12 1,12 3,16  "/><path d="M2,11h14V9H9V7H6V2H3v5H2V11z M7,8c0.6,0,1,0.5,1,1s-0.4,1-1,1S6,9.5,6,9S6.4,8,7,8z M4,8c0.6,0,1,0.5,1,1s-0.4,1-1,1   S3,9.5,3,9S3.4,8,4,8z"/><rect x="10" y="3" width="2" height="2"/><rect x="13" y="3" width="2" height="2"/><rect x="10" y="6" width="2" height="2"/><rect x="13" y="6" width="2" height="2"/></g></svg>